<svg xmlns="http://www.w3.org/2000/svg" width="464.62" height="453.164" viewBox="0 0 464.62 453.164">
  <path id="githubIcon" d="M232.31,0C104.018,0,0,104.018,0,232.31,0,334.966,66.557,422.026,158.876,452.737c11.613,2.127,15.852-5.048,15.852-11.173,0-5.53-.213-23.849-.326-43.246-64.6,14.037-78.254-27.394-78.254-27.394C85.571,344.1,70.356,336.951,70.356,336.951c-21.113-14.406,1.6-14.122,1.6-14.122,23.324,1.616,35.6,23.934,35.6,23.934,20.73,35.5,54.391,25.239,67.606,19.284,2.112-14.973,8.124-25.239,14.746-31.024C138.345,329.153,84.1,309.217,84.1,220.2c0-25.381,9.061-46.082,23.892-62.345-2.368-5.9-10.365-29.535,2.3-61.509,0,0,19.482-6.239,63.891,23.821a219.917,219.917,0,0,1,116.3.028c44.324-30.088,63.834-23.821,63.834-23.821,12.7,32,4.707,55.61,2.325,61.48,14.888,16.264,23.878,36.965,23.878,62.345,0,89.243-54.334,108.9-106.088,114.652,8.366,7.2,15.767,21.325,15.767,42.991,0,31.052-.312,56.092-.312,63.749,0,6.182,4.225,13.413,15.994,11.145C398.12,421.969,464.62,334.91,464.62,232.31,464.62,104.018,360.6,0,232.31,0Z"/>
</svg>
