<svg xmlns="http://www.w3.org/2000/svg" width="618.005" height="172.623" viewBox="0 0 618.005 172.623">
  <g id="Grupo_11" data-name="Grupo 11" transform="translate(-651 -454)">
    <g id="Grupo_9" data-name="Grupo 9">
      <g id="Grupo_8" data-name="Grupo 8" transform="translate(-117.488 202)">
        <text id="urielmendoza.ga_gmail.com" data-name="urielmendoza.ga@gmail.com" transform="translate(828 320.935)" font-size="30" font-family="Roboto-Medium, Roboto" font-weight="500" letter-spacing="0.01em"><tspan x="0" y="29">urielmendoza.ga@gmail.com</tspan></text>
        <text id="_3321303783" data-name="3321303783" transform="translate(827.583 387.623)" font-size="30" font-family="Roboto-Medium, Roboto" font-weight="500" letter-spacing="0.01em"><tspan x="0" y="29">3321303783</tspan></text>
        <path id="Trazado_9" data-name="Trazado 9" d="M44.369,3H4.034A4.045,4.045,0,0,0,0,7.034V35.268A4.045,4.045,0,0,0,4.034,39.3H44.369a4.028,4.028,0,0,0,4.013-4.034L48.4,7.034A4.045,4.045,0,0,0,44.369,3ZM16.134,9.05a6.05,6.05,0,1,1-6.05,6.05A6.042,6.042,0,0,1,16.134,9.05Zm12.1,24.2H4.034V31.235c0-4.034,8.067-6.252,12.1-6.252s12.1,2.218,12.1,6.252ZM36,25.185h3.308l3.045,4.034-4.013,4.013a15.149,15.149,0,0,1-5.506-8.047,14.688,14.688,0,0,1,0-8.067A15.073,15.073,0,0,1,38.339,9.07l4.013,4.013-3.045,4.034H36a11.877,11.877,0,0,0,0,8.067Z" transform="translate(768.488 384.936)"/>
        <path id="Trazado_6" data-name="Trazado 6" d="M42.352,13.084V11.067L36.3,15.1l-6.05-4.034v2.017l6.05,4.034ZM44.369,3H4.034A4.045,4.045,0,0,0,0,7.034V35.268A4.045,4.045,0,0,0,4.034,39.3H44.369a4.028,4.028,0,0,0,4.013-4.034L48.4,7.034A4.045,4.045,0,0,0,44.369,3ZM16.134,9.05a6.05,6.05,0,1,1-6.05,6.05A6.042,6.042,0,0,1,16.134,9.05Zm12.1,24.2H4.034V31.235c0-4.034,8.067-6.252,12.1-6.252s12.1,2.218,12.1,6.252Zm16.134-12.1H28.235V9.05H44.369Z" transform="translate(768.488 318.248)"/>
        <text id="Contacto" transform="translate(828.492 252)" font-size="35" font-family="Roboto-Bold, Roboto" font-weight="700" letter-spacing="0.01em"><tspan x="0" y="33">Contacto</tspan></text>
        <g id="_24px_2_" data-name="24px (2)" transform="translate(772 256)">
          <path id="Trazado_3" data-name="Trazado 3" d="M0,0H42V42H0Z" fill="none"/>
          <path id="Trazado_4" data-name="Trazado 4" d="M33.5,2H5.5A3.51,3.51,0,0,0,2,5.5V37l7-7H33.5A3.51,3.51,0,0,0,37,26.5V5.5A3.51,3.51,0,0,0,33.5,2Zm0,24.5H9L5.5,30V5.5h28Z" transform="translate(1.5 1.5)"/>
        </g>
        <line id="Línea_6" data-name="Línea 6" x1="508" transform="translate(768.5 298.5)" fill="none" stroke="#000" stroke-width="2"/>
      </g>
    </g>
  </g>
</svg>
