<svg xmlns="http://www.w3.org/2000/svg" width="48.403" height="36.302" viewBox="0 0 48.403 36.302">
  <g id="mailContact" transform="translate(0 -6.05)">
    <path id="Trazado_6" data-name="Trazado 6" d="M42.352,13.084V11.067L36.3,15.1l-6.05-4.034v2.017l6.05,4.034ZM44.369,3H4.034A4.045,4.045,0,0,0,0,7.034V35.268A4.045,4.045,0,0,0,4.034,39.3H44.369a4.028,4.028,0,0,0,4.013-4.034L48.4,7.034A4.045,4.045,0,0,0,44.369,3ZM16.134,9.05a6.05,6.05,0,1,1-6.05,6.05A6.042,6.042,0,0,1,16.134,9.05Zm12.1,24.2H4.034V31.235c0-4.034,8.067-6.252,12.1-6.252s12.1,2.218,12.1,6.252Zm16.134-12.1H28.235V9.05H44.369Z" transform="translate(0 3.05)"/>
  </g>
</svg>
