<svg xmlns="http://www.w3.org/2000/svg" width="48.403" height="36.302" viewBox="0 0 48.403 36.302">
  <g id="phoneContact" transform="translate(0 -6.05)">
    <path id="Trazado_9" data-name="Trazado 9" d="M44.369,3H4.034A4.045,4.045,0,0,0,0,7.034V35.268A4.045,4.045,0,0,0,4.034,39.3H44.369a4.028,4.028,0,0,0,4.013-4.034L48.4,7.034A4.045,4.045,0,0,0,44.369,3ZM16.134,9.05a6.05,6.05,0,1,1-6.05,6.05A6.042,6.042,0,0,1,16.134,9.05Zm12.1,24.2H4.034V31.235c0-4.034,8.067-6.252,12.1-6.252s12.1,2.218,12.1,6.252ZM36,25.185h3.308l3.045,4.034-4.013,4.013a15.149,15.149,0,0,1-5.506-8.047,14.688,14.688,0,0,1,0-8.067A15.073,15.073,0,0,1,38.339,9.07l4.013,4.013-3.045,4.034H36a11.877,11.877,0,0,0,0,8.067Z" transform="translate(0 3.05)"/>
  </g>
</svg>
